<svg xmlns="http://www.w3.org/2000/svg" viewBox="0 0 1200 453.09"><defs><style>.cls-1{fill:#0087ff;}</style></defs><g id="Layer_2" data-name="Layer 2"><g id="Layer_1-2" data-name="Layer 1"><path class="cls-1" d="M346.4,296.57H309V18.73A18.73,18.73,0,0,0,290.23,0H199.38a18.74,18.74,0,0,0-15.81,8.69L2.92,293.3a18.68,18.68,0,0,0-2.92,10v51.24a18.74,18.74,0,0,0,18.73,18.73H217.4V434.2a18.73,18.73,0,0,0,18.72,18.73h54.11A18.73,18.73,0,0,0,309,434.2V373.31H346.4a18.74,18.74,0,0,0,18.73-18.73V315.3A18.73,18.73,0,0,0,346.4,296.57ZM96.42,293,215.63,104.39h3.53V296.57H96.42Z"/><path class="cls-1" d="M1181.27,296.57h-37.44V18.73A18.74,18.74,0,0,0,1125.1,0h-90.84a18.75,18.75,0,0,0-15.82,8.69L837.79,293.3a18.68,18.68,0,0,0-2.92,10v51.24a18.74,18.74,0,0,0,18.73,18.73h198.67V434.2A18.73,18.73,0,0,0,1071,452.93h54.1a18.74,18.74,0,0,0,18.73-18.73V373.31h37.44A18.74,18.74,0,0,0,1200,354.58V315.3A18.73,18.73,0,0,0,1181.27,296.57ZM931.3,293l119.2-188.64H1054V296.57H931.3Z"/><path class="cls-1" d="M778.51,366.84a226.11,226.11,0,0,1-177.89,86.25c-125.12,0-226.55-101.43-226.55-226.54S475.5,0,600.62,0A226.14,226.14,0,0,1,778.51,86.25a143.2,143.2,0,0,0-19.31-1.31,141.07,141.07,0,0,0-79.3,24.26,141.59,141.59,0,1,0,0,234.65,142.75,142.75,0,0,0,98.61,23ZM759.2,317.17a90.63,90.63,0,1,1,90.62-90.62A90.63,90.63,0,0,1,759.2,317.17Z"/></g></g></svg>