{
    "asset" : {
        "generator" : "Khronos glTF Blender I/O v1.8.6",
        "version" : "2.0"
    },
    "scene" : 0,
    "scenes" : [
        {
            "name" : "Scene",
            "nodes" : [
                0,
                1,
                2
            ]
        }
    ],
    "nodes" : [
        {
            "mesh" : 0,
            "name" : "Curve.003",
            "scale" : [
                6.299898624420166,
                6.299898624420166,
                6.299898624420166
            ],
            "translation" : [
                -0.6522850394248962,
                0,
                0.07326648384332657
            ]
        },
        {
            "mesh" : 1,
            "name" : "Curve.004",
            "scale" : [
                6.299898624420166,
                6.299898624420166,
                6.299898624420166
            ],
            "translation" : [
                0.8393495082855225,
                0,
                0.07856690138578415
            ]
        },
        {
            "mesh" : 2,
            "name" : "Curve.005",
            "scale" : [
                6.299898624420166,
                6.299898624420166,
                6.299898624420166
            ],
            "translation" : [
                0.12320781499147415,
                0,
                -0.008724205195903778
            ]
        }
    ],
    "materials" : [
        {
            "doubleSided" : true,
            "name" : "SVGMat",
            "pbrMetallicRoughness" : {
                "baseColorFactor" : [
                    0,
                    0.24228115379810333,
                    1,
                    1
                ],
                "metallicFactor" : 0,
                "roughnessFactor" : 0.4000000059604645
            }
        },
        {
            "doubleSided" : true,
            "name" : "side",
            "pbrMetallicRoughness" : {
                "metallicFactor" : 0,
                "roughnessFactor" : 0.5
            }
        }
    ],
    "meshes" : [
        {
            "name" : "Curve.003",
            "primitives" : [
                {
                    "attributes" : {
                        "POSITION" : 0,
                        "NORMAL" : 1,
                        "TEXCOORD_0" : 2
                    },
                    "indices" : 3,
                    "material" : 0
                },
                {
                    "attributes" : {
                        "POSITION" : 4,
                        "NORMAL" : 5,
                        "TEXCOORD_0" : 6
                    },
                    "indices" : 7,
                    "material" : 1
                }
            ]
        },
        {
            "name" : "Curve.004",
            "primitives" : [
                {
                    "attributes" : {
                        "POSITION" : 8,
                        "NORMAL" : 9,
                        "TEXCOORD_0" : 10
                    },
                    "indices" : 11,
                    "material" : 0
                },
                {
                    "attributes" : {
                        "POSITION" : 12,
                        "NORMAL" : 13,
                        "TEXCOORD_0" : 14
                    },
                    "indices" : 15,
                    "material" : 1
                }
            ]
        },
        {
            "name" : "Curve.005",
            "primitives" : [
                {
                    "attributes" : {
                        "POSITION" : 16,
                        "NORMAL" : 17,
                        "TEXCOORD_0" : 18
                    },
                    "indices" : 19,
                    "material" : 0
                },
                {
                    "attributes" : {
                        "POSITION" : 20,
                        "NORMAL" : 21,
                        "TEXCOORD_0" : 22
                    },
                    "indices" : 23,
                    "material" : 1
                }
            ]
        }
    ],
    "accessors" : [
        {
            "bufferView" : 0,
            "componentType" : 5126,
            "count" : 810,
            "max" : [
                0.03879503160715103,
                0.20000000298023224,
                0.05085235461592674
            ],
            "min" : [
                -0.06425487995147705,
                -0.3175439238548279,
                -0.07695016264915466
            ],
            "type" : "VEC3"
        },
        {
            "bufferView" : 1,
            "componentType" : 5126,
            "count" : 810,
            "type" : "VEC3"
        },
        {
            "bufferView" : 2,
            "componentType" : 5126,
            "count" : 810,
            "type" : "VEC2"
        },
        {
            "bufferView" : 3,
            "componentType" : 5123,
            "count" : 1782,
            "type" : "SCALAR"
        },
        {
            "bufferView" : 4,
            "componentType" : 5126,
            "count" : 598,
            "max" : [
                0.03879503160715103,
                0.20000000298023224,
                0.05085235461592674
            ],
            "min" : [
                -0.06425487995147705,
                -0.3175439238548279,
                -0.07695016264915466
            ],
            "type" : "VEC3"
        },
        {
            "bufferView" : 5,
            "componentType" : 5126,
            "count" : 598,
            "type" : "VEC3"
        },
        {
            "bufferView" : 6,
            "componentType" : 5126,
            "count" : 598,
            "type" : "VEC2"
        },
        {
            "bufferView" : 7,
            "componentType" : 5123,
            "count" : 1782,
            "type" : "SCALAR"
        },
        {
            "bufferView" : 8,
            "componentType" : 5126,
            "count" : 733,
            "max" : [
                0.04015132784843445,
                0.20000000298023224,
                0.050011005252599716
            ],
            "min" : [
                -0.06289857625961304,
                -0.3175439238548279,
                -0.07779151201248169
            ],
            "type" : "VEC3"
        },
        {
            "bufferView" : 9,
            "componentType" : 5126,
            "count" : 733,
            "type" : "VEC3"
        },
        {
            "bufferView" : 10,
            "componentType" : 5126,
            "count" : 733,
            "type" : "VEC2"
        },
        {
            "bufferView" : 11,
            "componentType" : 5123,
            "count" : 1638,
            "type" : "SCALAR"
        },
        {
            "bufferView" : 12,
            "componentType" : 5126,
            "count" : 550,
            "max" : [
                0.04015132784843445,
                0.20000000298023224,
                0.050011005252599716
            ],
            "min" : [
                -0.06289857625961304,
                -0.3175439238548279,
                -0.07779151201248169
            ],
            "type" : "VEC3"
        },
        {
            "bufferView" : 13,
            "componentType" : 5126,
            "count" : 550,
            "type" : "VEC3"
        },
        {
            "bufferView" : 14,
            "componentType" : 5126,
            "count" : 550,
            "type" : "VEC2"
        },
        {
            "bufferView" : 15,
            "componentType" : 5123,
            "count" : 1638,
            "type" : "SCALAR"
        },
        {
            "bufferView" : 16,
            "componentType" : 5126,
            "count" : 739,
            "max" : [
                0.05147743225097656,
                0.20000000298023224,
                0.06391210854053497
            ],
            "min" : [
                -0.08279253542423248,
                -0.3175439238548279,
                -0.06393556296825409
            ],
            "type" : "VEC3"
        },
        {
            "bufferView" : 17,
            "componentType" : 5126,
            "count" : 739,
            "type" : "VEC3"
        },
        {
            "bufferView" : 18,
            "componentType" : 5126,
            "count" : 739,
            "type" : "VEC2"
        },
        {
            "bufferView" : 19,
            "componentType" : 5123,
            "count" : 1632,
            "type" : "SCALAR"
        },
        {
            "bufferView" : 20,
            "componentType" : 5126,
            "count" : 556,
            "max" : [
                0.05147743225097656,
                0.20000000298023224,
                0.06391210854053497
            ],
            "min" : [
                -0.08279253542423248,
                -0.3175439238548279,
                -0.06393556296825409
            ],
            "type" : "VEC3"
        },
        {
            "bufferView" : 21,
            "componentType" : 5126,
            "count" : 556,
            "type" : "VEC3"
        },
        {
            "bufferView" : 22,
            "componentType" : 5126,
            "count" : 556,
            "type" : "VEC2"
        },
        {
            "bufferView" : 23,
            "componentType" : 5123,
            "count" : 1656,
            "type" : "SCALAR"
        }
    ],
    "bufferViews" : [
        {
            "buffer" : 0,
            "byteLength" : 9720,
            "byteOffset" : 0
        },
        {
            "buffer" : 0,
            "byteLength" : 9720,
            "byteOffset" : 9720
        },
        {
            "buffer" : 0,
            "byteLength" : 6480,
            "byteOffset" : 19440
        },
        {
            "buffer" : 0,
            "byteLength" : 3564,
            "byteOffset" : 25920
        },
        {
            "buffer" : 0,
            "byteLength" : 7176,
            "byteOffset" : 29484
        },
        {
            "buffer" : 0,
            "byteLength" : 7176,
            "byteOffset" : 36660
        },
        {
            "buffer" : 0,
            "byteLength" : 4784,
            "byteOffset" : 43836
        },
        {
            "buffer" : 0,
            "byteLength" : 3564,
            "byteOffset" : 48620
        },
        {
            "buffer" : 0,
            "byteLength" : 8796,
            "byteOffset" : 52184
        },
        {
            "buffer" : 0,
            "byteLength" : 8796,
            "byteOffset" : 60980
        },
        {
            "buffer" : 0,
            "byteLength" : 5864,
            "byteOffset" : 69776
        },
        {
            "buffer" : 0,
            "byteLength" : 3276,
            "byteOffset" : 75640
        },
        {
            "buffer" : 0,
            "byteLength" : 6600,
            "byteOffset" : 78916
        },
        {
            "buffer" : 0,
            "byteLength" : 6600,
            "byteOffset" : 85516
        },
        {
            "buffer" : 0,
            "byteLength" : 4400,
            "byteOffset" : 92116
        },
        {
            "buffer" : 0,
            "byteLength" : 3276,
            "byteOffset" : 96516
        },
        {
            "buffer" : 0,
            "byteLength" : 8868,
            "byteOffset" : 99792
        },
        {
            "buffer" : 0,
            "byteLength" : 8868,
            "byteOffset" : 108660
        },
        {
            "buffer" : 0,
            "byteLength" : 5912,
            "byteOffset" : 117528
        },
        {
            "buffer" : 0,
            "byteLength" : 3264,
            "byteOffset" : 123440
        },
        {
            "buffer" : 0,
            "byteLength" : 6672,
            "byteOffset" : 126704
        },
        {
            "buffer" : 0,
            "byteLength" : 6672,
            "byteOffset" : 133376
        },
        {
            "buffer" : 0,
            "byteLength" : 4448,
            "byteOffset" : 140048
        },
        {
            "buffer" : 0,
            "byteLength" : 3312,
            "byteOffset" : 144496
        }
    ],
    "buffers" : [
        {
            "byteLength" : 147808,
            "uri" : "data:application/octet-stream;base64,"
        }
    ]
}
